<?xml version="1.0" encoding="UTF-8" standalone="no"?>
<!DOCTYPE svg PUBLIC "-//W3C//DTD SVG 1.1//EN" "http://www.w3.org/Graphics/SVG/1.1/DTD/svg11.dtd">
<svg version="1.1" xmlns="http://www.w3.org/2000/svg" xmlns:xlink="http://www.w3.org/1999/xlink" preserveAspectRatio="xMidYMid meet" viewBox="201.42990654205616 188.71962616822444 251.85046728971955 149.53271028037383" width="247.85" height="145.53"><defs><path d="M202.43 189.72L450.28 189.72L450.28 335.25L202.43 335.25L202.43 189.72Z" id="a2fGcDJnTD"></path><path d="M352.41 262.8C352.41 299.63 322.51 329.53 285.68 329.53C248.85 329.53 218.95 299.63 218.95 262.8C218.95 225.98 248.85 196.07 285.68 196.07C322.51 196.07 352.41 225.98 352.41 262.8Z" id="b19WCBwFpV"></path><path d="M446.3 262.8C446.3 299.63 416.4 329.53 379.57 329.53C342.74 329.53 312.84 299.63 312.84 262.8C312.84 225.98 342.74 196.07 379.57 196.07C416.4 196.07 446.3 225.98 446.3 262.8Z" id="dC0IVaFUk"></path><path d="M352.41 262.8C352.41 299.63 322.51 329.53 285.68 329.53C248.85 329.53 218.95 299.63 218.95 262.8C218.95 225.98 248.85 196.07 285.68 196.07C322.51 196.07 352.41 225.98 352.41 262.8Z" id="i7k2e2vrgG"></path><path d="M405.31 262.8C405.31 277.01 393.78 288.54 379.57 288.54C365.36 288.54 353.83 277.01 353.83 262.8C353.83 248.6 365.36 237.07 379.57 237.07C393.78 237.07 405.31 248.6 405.31 262.8Z" id="b13VNPZI1o"></path><path d="M311.42 262.8C311.42 277.01 299.89 288.54 285.68 288.54C271.48 288.54 259.94 277.01 259.94 262.8C259.94 248.6 271.48 237.07 285.68 237.07C299.89 237.07 311.42 248.6 311.42 262.8Z" id="f35ctKxxBw"></path><path d="M414.21 237.39L448.84 211.98L448.84 262.8L448.84 313.63L414.21 288.22L379.57 262.8L414.21 237.39Z" id="a1XWxaLerA"></path></defs><g><g><use xlink:href="#a2fGcDJnTD" opacity="1" fill="#ffffff" fill-opacity="1"></use></g><g><use xlink:href="#b19WCBwFpV" opacity="1" fill="#9931fc" fill-opacity="1"></use><g><use xlink:href="#b19WCBwFpV" opacity="1" fill-opacity="0" stroke="#9931fc" stroke-width="1" stroke-opacity="1"></use></g></g><g><use xlink:href="#dC0IVaFUk" opacity="1" fill="#2d22de" fill-opacity="1"></use><g><use xlink:href="#dC0IVaFUk" opacity="1" fill-opacity="0" stroke="#2d22de" stroke-width="1" stroke-opacity="1"></use></g></g><g><g><use xlink:href="#i7k2e2vrgG" opacity="1" fill-opacity="0" stroke="#9931fc" stroke-width="1" stroke-opacity="1"></use></g></g><g><use xlink:href="#b13VNPZI1o" opacity="1" fill="#ffffff" fill-opacity="1"></use><g><use xlink:href="#b13VNPZI1o" opacity="1" fill-opacity="0" stroke="#ffffff" stroke-width="1" stroke-opacity="1"></use></g></g><g><use xlink:href="#f35ctKxxBw" opacity="1" fill="#ffffff" fill-opacity="1"></use><g><use xlink:href="#f35ctKxxBw" opacity="1" fill-opacity="0" stroke="#ffffff" stroke-width="1" stroke-opacity="1"></use></g></g><g><use xlink:href="#a1XWxaLerA" opacity="1" fill="#ffffff" fill-opacity="1"></use></g></g></svg>