<?xml version="1.0" encoding="UTF-8" standalone="no"?>
<!DOCTYPE svg PUBLIC "-//W3C//DTD SVG 1.1//EN" "http://www.w3.org/Graphics/SVG/1.1/DTD/svg11.dtd">
<svg width="100%" height="100%" viewBox="0 0 704 96" version="1.1" xmlns="http://www.w3.org/2000/svg" xmlns:xlink="http://www.w3.org/1999/xlink" xml:space="preserve" xmlns:serif="http://www.serif.com/" style="fill-rule:evenodd;clip-rule:evenodd;stroke-linejoin:round;stroke-miterlimit:2;">
    <g transform="matrix(1,0,0,1,69,-393.988)">
        <g id="Livello-1" serif:id="Livello 1">
            <g id="g782">
                <g id="g576" transform="matrix(3.01364,0,0,3.01364,-160.222,-129.932)">
                    <g id="g532">
                        <path d="M54.3,66.8L54.3,176L240.2,176L240.2,66.8L54.3,66.8ZM97.4,121.7C97.4,111 106.1,102.4 116.7,102.4C127.4,102.4 136,111 136,121.7C136,132.4 127.4,141 116.7,141C106.1,141 97.4,132.3 97.4,121.7ZM239.1,159.8L227.5,151.3L213.1,140.8L202.7,133.2C199.2,138 193.5,141.1 187.1,141.1C176.4,141.1 167.8,132.5 167.8,121.8C167.8,111.1 176.4,102.5 187.1,102.5C193.5,102.5 199.1,105.6 202.7,110.4L213.1,102.8L227.5,92.3L239.1,83.8L239.1,159.8Z" style="fill:none;fill-rule:nonzero;"/>
                    </g>
                    <g id="g540">
                    </g>
                    <g id="g548">
                    </g>
                    <g id="g554">
                    </g>
                    <g id="g570">
                    </g>
                    <g id="g574">
                    </g>
                </g>
                <g id="g751" transform="matrix(1,0,0,1,-0.616681,0)">
                    <g transform="matrix(1,0,0,1,0.1538,465.492)">
                        <text x="0px" y="0px" style="font-family:'ArialMT', 'Arial', sans-serif;font-size:90px;fill:white;">Open</text>
                    </g>
                    <g transform="matrix(1,0,0,1,216.797,465.448)">
                        <text x="0px" y="0px" style="font-family:'ArialMT', 'Arial', sans-serif;font-size:90px;fill:white;">Citations</text>
                    </g>
                </g>
            </g>
        </g>
    </g>
</svg>
