<?xml version="1.0" encoding="utf-8"?>
<!-- Generator: Adobe Illustrator 23.0.0, SVG Export Plug-In . SVG Version: 6.00 Build 0)  -->
<svg version="1.1"
	 id="svg92" inkscape:export-filename="/Users/six/Desktop/logo.png" inkscape:export-xdpi="96" inkscape:export-ydpi="96" inkscape:version="1.0 (4035a4f, 2020-05-01)" sodipodi:docname="logo.svg" xmlns:cc="http://creativecommons.org/ns#" xmlns:dc="http://purl.org/dc/elements/1.1/" xmlns:inkscape="http://www.inkscape.org/namespaces/inkscape" xmlns:rdf="http://www.w3.org/1999/02/22-rdf-syntax-ns#" xmlns:sodipodi="http://sodipodi.sourceforge.net/DTD/sodipodi-0.dtd" xmlns:svg="http://www.w3.org/2000/svg"
	 xmlns="http://www.w3.org/2000/svg" xmlns:xlink="http://www.w3.org/1999/xlink" x="0px" y="0px" viewBox="0 0 566.9 566.9"
	 style="enable-background:new 0 0 566.9 566.9;" xml:space="preserve">
<style type="text/css">
	.st0{fill:none;}
	.st1{fill:#9931FC;}
	.st2{fill-opacity:0;stroke:#9931FC;stroke-width:0.2646;}
	.st3{fill:#2D22DE;}
	.st4{fill-opacity:0;stroke:#2D22DE;stroke-width:0.2646;}
	.st5{fill-opacity:0;stroke:#FFFFFF;stroke-width:0.2646;}
</style>
<sodipodi:namedview  bordercolor="#666666" borderopacity="1.0" fit-margin-bottom="0" fit-margin-left="0" fit-margin-right="0" fit-margin-top="0" id="base" inkscape:current-layer="layer1" inkscape:cx="400" inkscape:cy="560" inkscape:document-rotation="0" inkscape:document-units="mm" inkscape:pageopacity="1" inkscape:pageshadow="2" inkscape:snap-object-midpoints="false" inkscape:window-height="1042" inkscape:window-maximized="0" inkscape:window-width="1398" inkscape:window-x="470" inkscape:window-y="23" inkscape:zoom="0.35" pagecolor="#ffffff" showgrid="false">
	</sodipodi:namedview>
<g id="layer1" inkscape:groupmode="layer" inkscape:label="Livello 1">
	<g id="g576" transform="matrix(3.0136366,0,0,3.0136364,-160.22177,-109.2945)">
		<g id="g532">
			<path class="st0" d="M54.3,75.8v109.1h185.9V75.8H54.3z M97.4,130.6c0-10.7,8.7-19.3,19.3-19.3c10.7,0,19.3,8.6,19.3,19.3
				c0,10.7-8.6,19.3-19.3,19.3C106.1,149.9,97.4,141.2,97.4,130.6z M239.1,168.7l-11.6-8.5l-14.4-10.5l-10.4-7.6
				c-3.5,4.8-9.2,7.9-15.6,7.9c-10.7,0-19.3-8.6-19.3-19.3c0-10.7,8.6-19.3,19.3-19.3c6.4,0,12,3.1,15.6,7.9l10.4-7.6l14.4-10.5
				l11.6-8.5V168.7z"/>
		</g>
		<g id="g540">
			<path class="st1" d="M151.9,95c-9-9-21.5-14.5-35.2-14.5c-27.6,0-50,22.4-50,50c0,27.6,22.4,50,50,50c13.7,0,26.2-5.5,35.2-14.5
				c9.2-9.1,14.8-21.7,14.8-35.6C166.8,116.7,161.1,104.1,151.9,95z M116.7,149.9c-10.7,0-19.3-8.6-19.3-19.3
				c0-10.7,8.7-19.3,19.3-19.3c10.7,0,19.3,8.6,19.3,19.3C136,141.2,127.4,149.9,116.7,149.9z"/>
			<g id="g538">
				<path class="st2" d="M151.9,95c-9-9-21.5-14.5-35.2-14.5c-27.6,0-50,22.4-50,50c0,27.6,22.4,50,50,50c13.7,0,26.2-5.5,35.2-14.5
					c9.2-9.1,14.8-21.7,14.8-35.6C166.8,116.7,161.1,104.1,151.9,95z M116.7,149.9c-10.7,0-19.3-8.6-19.3-19.3
					c0-10.7,8.7-19.3,19.3-19.3c10.7,0,19.3,8.6,19.3,19.3C136,141.2,127.4,149.9,116.7,149.9z"/>
			</g>
		</g>
		<g id="g548">
			<path class="st3" d="M202.7,142c-3.5,4.8-9.2,7.9-15.6,7.9c-10.7,0-19.3-8.6-19.3-19.3c0-10.7,8.6-19.3,19.3-19.3
				c6.4,0,12,3.1,15.6,7.9l10.4-7.6l14.4-10.5c-9.1-12.4-23.8-20.4-40.3-20.4c-13.7,0-26.2,5.5-35.2,14.5
				c-9.2,9.1-14.8,21.7-14.8,35.6c0,13.9,5.7,26.5,14.8,35.6c9,9,21.5,14.5,35.2,14.5c16.6,0,31.2-8.1,40.3-20.4l-14.4-10.5
				L202.7,142z"/>
			<g id="g546">
				<path class="st4" d="M202.7,142c-3.5,4.8-9.2,7.9-15.6,7.9c-10.7,0-19.3-8.6-19.3-19.3c0-10.7,8.6-19.3,19.3-19.3
					c6.4,0,12,3.1,15.6,7.9l10.4-7.6l14.4-10.5c-9.1-12.4-23.8-20.4-40.3-20.4c-13.7,0-26.2,5.5-35.2,14.5
					c-9.2,9.1-14.8,21.7-14.8,35.6c0,13.9,5.7,26.5,14.8,35.6c9,9,21.5,14.5,35.2,14.5c16.6,0,31.2-8.1,40.3-20.4l-14.4-10.5
					L202.7,142z"/>
			</g>
		</g>
		<g id="g554">
			<g id="g552">
				<path class="st2" d="M151.9,95c-9-9-21.5-14.5-35.2-14.5c-27.6,0-50,22.4-50,50c0,27.6,22.4,50,50,50c13.7,0,26.2-5.5,35.2-14.5
					c9.2-9.1,14.8-21.7,14.8-35.6C166.8,116.7,161.1,104.1,151.9,95z M116.7,149.9c-10.7,0-19.3-8.6-19.3-19.3
					c0-10.7,8.7-19.3,19.3-19.3c10.7,0,19.3,8.6,19.3,19.3C136,141.2,127.4,149.9,116.7,149.9z"/>
			</g>
		</g>
		<g id="g570">
			<g id="g568">
				<path class="st5" d="M136,130.6c0,10.7-8.6,19.3-19.3,19.3c-10.7,0-19.3-8.6-19.3-19.3c0-10.7,8.7-19.3,19.3-19.3
					C127.4,111.3,136,119.9,136,130.6z"/>
			</g>
		</g>
		<g id="g574">
			<path class="st0" d="M206.4,130.6c0,4.3-1.4,8.2-3.7,11.4l-15.6-11.4l15.6-11.4C205.1,122.3,206.4,126.3,206.4,130.6z"/>
			<path class="st0" d="M237.2,130.6c0,11.1-3.6,21.3-9.7,29.6l-14.4-10.5l-10.4-7.6c2.4-3.2,3.7-7.1,3.7-11.4
				c0-4.3-1.4-8.2-3.7-11.4l10.4-7.6l14.4-10.5C233.6,109.3,237.2,119.5,237.2,130.6z"/>
			<path class="st0" d="M239.1,92.4v76.2l-11.6-8.5c6.1-8.3,9.7-18.5,9.7-29.6c0-11.1-3.6-21.3-9.7-29.6L239.1,92.4z"/>
		</g>
	</g>
</g>
</svg>
