<?xml version="1.0" encoding="UTF-8" standalone="no"?>
<svg
   xmlns:dc="http://purl.org/dc/elements/1.1/"
   xmlns:cc="http://creativecommons.org/ns#"
   xmlns:rdf="http://www.w3.org/1999/02/22-rdf-syntax-ns#"
   xmlns:svg="http://www.w3.org/2000/svg"
   xmlns="http://www.w3.org/2000/svg"
   xmlns:sodipodi="http://sodipodi.sourceforge.net/DTD/sodipodi-0.dtd"
   xmlns:inkscape="http://www.inkscape.org/namespaces/inkscape"
   sodipodi:docname="logo.svg"
   inkscape:version="1.0 (4035a4f, 2020-05-01)"
   id="svg92"
   version="1.1"
   viewBox="0 0 200 200"
   height="200mm"
   width="200mm"
   inkscape:export-filename="/Users/six/Desktop/logo.png"
   inkscape:export-xdpi="96"
   inkscape:export-ydpi="96">
  <defs
     id="defs86" />
  <sodipodi:namedview
     inkscape:window-maximized="0"
     inkscape:window-y="23"
     inkscape:window-x="470"
     inkscape:window-height="1042"
     inkscape:window-width="1398"
     inkscape:snap-object-midpoints="false"
     fit-margin-bottom="0"
     fit-margin-right="0"
     fit-margin-left="0"
     fit-margin-top="0"
     showgrid="false"
     inkscape:document-rotation="0"
     inkscape:current-layer="layer1"
     inkscape:document-units="mm"
     inkscape:cy="560"
     inkscape:cx="400"
     inkscape:zoom="0.35"
     inkscape:pageshadow="2"
     inkscape:pageopacity="1"
     borderopacity="1.0"
     bordercolor="#666666"
     pagecolor="#ffffff"
     id="base" />
  <metadata
     id="metadata89">
    <rdf:RDF>
      <cc:Work
         rdf:about="">
        <dc:format>image/svg+xml</dc:format>
        <dc:type
           rdf:resource="http://purl.org/dc/dcmitype/StillImage" />
        <dc:title></dc:title>
      </cc:Work>
    </rdf:RDF>
  </metadata>
  <g
     id="layer1"
     inkscape:groupmode="layer"
     inkscape:label="Livello 1">
    <g
       transform="matrix(3.0136366,0,0,3.0136364,-160.22177,-109.2945)"
       id="g576">
      <g
         id="g532">
        <path
           id="use530"
           d="M 53.559604,50.19675 H 119.13658 V 88.701562 H 53.559604 Z"
           style="fill:#ffffff;fill-opacity:1;stroke-width:0.264583" />
      </g>
      <g
         id="g540">
        <path
           id="use534"
           d="m 93.241812,69.5325 c 0,9.744604 -7.911041,17.655646 -17.655645,17.655646 -9.744605,0 -17.655646,-7.911042 -17.655646,-17.655646 0,-9.741958 7.911041,-17.655646 17.655646,-17.655646 9.744604,0 17.655645,7.913688 17.655645,17.655646 z"
           style="fill:#9931fc;fill-opacity:1;stroke-width:0.264583" />
        <g
           id="g538">
          <path
             id="use536"
             d="m 93.241812,69.5325 c 0,9.744604 -7.911041,17.655646 -17.655645,17.655646 -9.744605,0 -17.655646,-7.911042 -17.655646,-17.655646 0,-9.741958 7.911041,-17.655646 17.655646,-17.655646 9.744604,0 17.655645,7.913688 17.655645,17.655646 z"
             style="fill-opacity:0;stroke:#9931fc;stroke-width:0.264583;stroke-opacity:1" />
        </g>
      </g>
      <g
         id="g548">
        <path
           id="use542"
           d="m 118.08354,69.5325 c 0,9.744604 -7.91104,17.655646 -17.65564,17.655646 -9.744608,0 -17.65565,-7.911042 -17.65565,-17.655646 0,-9.741958 7.911042,-17.655646 17.65565,-17.655646 9.7446,0 17.65564,7.913688 17.65564,17.655646 z"
           style="fill:#2d22de;fill-opacity:1;stroke-width:0.264583" />
        <g
           id="g546">
          <path
             id="use544"
             d="m 118.08354,69.5325 c 0,9.744604 -7.91104,17.655646 -17.65564,17.655646 -9.744608,0 -17.65565,-7.911042 -17.65565,-17.655646 0,-9.741958 7.911042,-17.655646 17.65565,-17.655646 9.7446,0 17.65564,7.913688 17.65564,17.655646 z"
             style="fill-opacity:0;stroke:#2d22de;stroke-width:0.264583;stroke-opacity:1" />
        </g>
      </g>
      <g
         id="g554">
        <g
           id="g552">
          <path
             id="use550"
             d="m 93.241812,69.5325 c 0,9.744604 -7.911041,17.655646 -17.655645,17.655646 -9.744605,0 -17.655646,-7.911042 -17.655646,-17.655646 0,-9.741958 7.911041,-17.655646 17.655646,-17.655646 9.744604,0 17.655645,7.913688 17.655645,17.655646 z"
             style="fill-opacity:0;stroke:#9931fc;stroke-width:0.264583;stroke-opacity:1" />
        </g>
      </g>
      <g
         id="g562">
        <path
           id="use556"
           d="m 107.23827,69.5325 c 0,3.759729 -3.05065,6.810375 -6.81037,6.810375 -3.759733,0 -6.810379,-3.050646 -6.810379,-6.810375 0,-3.757083 3.050646,-6.807729 6.810379,-6.807729 3.75972,0 6.81037,3.050646 6.81037,6.807729 z"
           style="fill:#ffffff;fill-opacity:1;stroke-width:0.264583" />
        <g
           id="g560">
          <path
             id="use558"
             d="m 107.23827,69.5325 c 0,3.759729 -3.05065,6.810375 -6.81037,6.810375 -3.759733,0 -6.810379,-3.050646 -6.810379,-6.810375 0,-3.757083 3.050646,-6.807729 6.810379,-6.807729 3.75972,0 6.81037,3.050646 6.81037,6.807729 z"
             style="fill-opacity:0;stroke:#ffffff;stroke-width:0.264583;stroke-opacity:1" />
        </g>
      </g>
      <g
         id="g570">
        <path
           id="use564"
           d="m 82.396542,69.5325 c 0,3.759729 -3.050646,6.810375 -6.810375,6.810375 -3.757084,0 -6.810375,-3.050646 -6.810375,-6.810375 0,-3.757083 3.053291,-6.807729 6.810375,-6.807729 3.759729,0 6.810375,3.050646 6.810375,6.807729 z"
           style="fill:#ffffff;fill-opacity:1;stroke-width:0.264583" />
        <g
           id="g568">
          <path
             id="use566"
             d="m 82.396542,69.5325 c 0,3.759729 -3.050646,6.810375 -6.810375,6.810375 -3.757084,0 -6.810375,-3.050646 -6.810375,-6.810375 0,-3.757083 3.053291,-6.807729 6.810375,-6.807729 3.759729,0 6.810375,3.050646 6.810375,6.807729 z"
             style="fill-opacity:0;stroke:#ffffff;stroke-width:0.264583;stroke-opacity:1" />
        </g>
      </g>
      <g
         id="g574">
        <path
           id="use572"
           d="m 109.59306,62.809437 9.16252,-6.723062 V 69.5325 82.981271 L 109.59306,76.258208 100.4279,69.5325 Z"
           style="fill:#ffffff;fill-opacity:1;stroke-width:0.264583" />
      </g>
    </g>
  </g>
</svg>
