<?xml version="1.0" encoding="UTF-8" standalone="no"?>
<svg
   xmlns:dc="http://purl.org/dc/elements/1.1/"
   xmlns:cc="http://creativecommons.org/ns#"
   xmlns:rdf="http://www.w3.org/1999/02/22-rdf-syntax-ns#"
   xmlns:svg="http://www.w3.org/2000/svg"
   xmlns="http://www.w3.org/2000/svg"
   xmlns:sodipodi="http://sodipodi.sourceforge.net/DTD/sodipodi-0.dtd"
   xmlns:inkscape="http://www.inkscape.org/namespaces/inkscape"
   width="200mm"
   height="200mm"
   viewBox="0 0 200 200"
   version="1.1"
   id="svg92"
   inkscape:version="1.0 (4035a4f, 2020-05-01)"
   sodipodi:docname="logotype.svg"
   inkscape:export-filename="/Users/six/Desktop/logotype.png"
   inkscape:export-xdpi="96"
   inkscape:export-ydpi="96">
  <defs
     id="defs86">
    <rect
       x="24.946429"
       y="146.65476"
       width="65.767857"
       height="34.017857"
       id="rect735" />
  </defs>
  <sodipodi:namedview
     id="base"
     pagecolor="#ffffff"
     bordercolor="#666666"
     borderopacity="1.0"
     inkscape:pageopacity="1"
     inkscape:pageshadow="2"
     inkscape:zoom="0.35"
     inkscape:cx="60"
     inkscape:cy="560"
     inkscape:document-units="mm"
     inkscape:current-layer="layer1"
     inkscape:document-rotation="0"
     showgrid="false"
     fit-margin-top="0"
     fit-margin-left="0"
     fit-margin-right="0"
     fit-margin-bottom="0"
     inkscape:snap-object-midpoints="false"
     inkscape:window-width="1398"
     inkscape:window-height="1042"
     inkscape:window-x="299"
     inkscape:window-y="23"
     inkscape:window-maximized="0" />
  <metadata
     id="metadata89">
    <rdf:RDF>
      <cc:Work
         rdf:about="">
        <dc:format>image/svg+xml</dc:format>
        <dc:type
           rdf:resource="http://purl.org/dc/dcmitype/StillImage" />
        <dc:title></dc:title>
      </cc:Work>
    </rdf:RDF>
  </metadata>
  <g
     inkscape:label="Livello 1"
     inkscape:groupmode="layer"
     id="layer1">
    <text
       xml:space="preserve"
       id="text733"
       style="line-height:1.25;font-family:Arial;font-size:10.58333333000000032px;-inkscape-font-specification:'Arial, Normal';white-space:pre;shape-inside:url(#rect735);" />
    <g
       id="g782"
       transform="translate(-3.9136718e-7,6.0115193)">
      <g
         transform="matrix(3.0136366,0,0,3.0136364,-160.22177,-129.93213)"
         id="g576">
        <g
           id="g532">
          <path
             id="use530"
             d="M 53.559604,50.19675 H 119.13658 V 88.701562 H 53.559604 Z"
             style="fill:#ffffff;fill-opacity:1;stroke-width:0.264583" />
        </g>
        <g
           id="g540">
          <path
             id="use534"
             d="m 93.241812,69.5325 c 0,9.744604 -7.911041,17.655646 -17.655645,17.655646 -9.744605,0 -17.655646,-7.911042 -17.655646,-17.655646 0,-9.741958 7.911041,-17.655646 17.655646,-17.655646 9.744604,0 17.655645,7.913688 17.655645,17.655646 z"
             style="fill:#9931fc;fill-opacity:1;stroke-width:0.264583" />
          <g
             id="g538">
            <path
               id="use536"
               d="m 93.241812,69.5325 c 0,9.744604 -7.911041,17.655646 -17.655645,17.655646 -9.744605,0 -17.655646,-7.911042 -17.655646,-17.655646 0,-9.741958 7.911041,-17.655646 17.655646,-17.655646 9.744604,0 17.655645,7.913688 17.655645,17.655646 z"
               style="fill-opacity:0;stroke:#9931fc;stroke-width:0.264583;stroke-opacity:1" />
          </g>
        </g>
        <g
           id="g548">
          <path
             id="use542"
             d="m 118.08354,69.5325 c 0,9.744604 -7.91104,17.655646 -17.65564,17.655646 -9.744608,0 -17.65565,-7.911042 -17.65565,-17.655646 0,-9.741958 7.911042,-17.655646 17.65565,-17.655646 9.7446,0 17.65564,7.913688 17.65564,17.655646 z"
             style="fill:#2d22de;fill-opacity:1;stroke-width:0.264583" />
          <g
             id="g546">
            <path
               id="use544"
               d="m 118.08354,69.5325 c 0,9.744604 -7.91104,17.655646 -17.65564,17.655646 -9.744608,0 -17.65565,-7.911042 -17.65565,-17.655646 0,-9.741958 7.911042,-17.655646 17.65565,-17.655646 9.7446,0 17.65564,7.913688 17.65564,17.655646 z"
               style="fill-opacity:0;stroke:#2d22de;stroke-width:0.264583;stroke-opacity:1" />
          </g>
        </g>
        <g
           id="g554">
          <g
             id="g552">
            <path
               id="use550"
               d="m 93.241812,69.5325 c 0,9.744604 -7.911041,17.655646 -17.655645,17.655646 -9.744605,0 -17.655646,-7.911042 -17.655646,-17.655646 0,-9.741958 7.911041,-17.655646 17.655646,-17.655646 9.744604,0 17.655645,7.913688 17.655645,17.655646 z"
               style="fill-opacity:0;stroke:#9931fc;stroke-width:0.264583;stroke-opacity:1" />
          </g>
        </g>
        <g
           id="g562">
          <path
             id="use556"
             d="m 107.23827,69.5325 c 0,3.759729 -3.05065,6.810375 -6.81037,6.810375 -3.759733,0 -6.810379,-3.050646 -6.810379,-6.810375 0,-3.757083 3.050646,-6.807729 6.810379,-6.807729 3.75972,0 6.81037,3.050646 6.81037,6.807729 z"
             style="fill:#ffffff;fill-opacity:1;stroke-width:0.264583" />
          <g
             id="g560">
            <path
               id="use558"
               d="m 107.23827,69.5325 c 0,3.759729 -3.05065,6.810375 -6.81037,6.810375 -3.759733,0 -6.810379,-3.050646 -6.810379,-6.810375 0,-3.757083 3.050646,-6.807729 6.810379,-6.807729 3.75972,0 6.81037,3.050646 6.81037,6.807729 z"
               style="fill-opacity:0;stroke:#ffffff;stroke-width:0.264583;stroke-opacity:1" />
          </g>
        </g>
        <g
           id="g570">
          <path
             id="use564"
             d="m 82.396542,69.5325 c 0,3.759729 -3.050646,6.810375 -6.810375,6.810375 -3.757084,0 -6.810375,-3.050646 -6.810375,-6.810375 0,-3.757083 3.053291,-6.807729 6.810375,-6.807729 3.759729,0 6.810375,3.050646 6.810375,6.807729 z"
             style="fill:#ffffff;fill-opacity:1;stroke-width:0.264583" />
          <g
             id="g568">
            <path
               id="use566"
               d="m 82.396542,69.5325 c 0,3.759729 -3.050646,6.810375 -6.810375,6.810375 -3.757084,0 -6.810375,-3.050646 -6.810375,-6.810375 0,-3.757083 3.053291,-6.807729 6.810375,-6.807729 3.759729,0 6.810375,3.050646 6.810375,6.807729 z"
               style="fill-opacity:0;stroke:#ffffff;stroke-width:0.264583;stroke-opacity:1" />
          </g>
        </g>
        <g
           id="g574">
          <path
             id="use572"
             d="m 109.59306,62.809437 9.16252,-6.723062 V 69.5325 82.981271 L 109.59306,76.258208 100.4279,69.5325 Z"
             style="fill:#ffffff;fill-opacity:1;stroke-width:0.264583" />
        </g>
      </g>
      <g
         transform="translate(-0.6166807)"
         id="g751">
        <text
           xml:space="preserve"
           style="font-style:normal;font-variant:normal;font-weight:normal;font-stretch:normal;font-size:31.75px;line-height:1.25;font-family:Arial;-inkscape-font-specification:'Arial, Normal';font-variant-ligatures:normal;font-variant-caps:normal;font-variant-numeric:normal;font-variant-east-asian:normal;fill:#9931fc;fill-opacity:1;stroke-width:0.264583"
           x="0.45356098"
           y="160.32465"
           id="text741"><tspan
             sodipodi:role="line"
             id="tspan739"
             x="0.45356098"
             y="160.32465"
             style="font-style:normal;font-variant:normal;font-weight:normal;font-stretch:normal;font-size:31.75px;font-family:Arial;-inkscape-font-specification:'Arial, Normal';font-variant-ligatures:normal;font-variant-caps:normal;font-variant-numeric:normal;font-variant-east-asian:normal;fill:#9931fc;fill-opacity:1;stroke-width:0.264583">Open</tspan></text>
        <text
           xml:space="preserve"
           style="font-style:normal;font-variant:normal;font-weight:normal;font-stretch:normal;font-size:31.75px;line-height:1.25;font-family:Arial;-inkscape-font-specification:'Arial, Normal';font-variant-ligatures:normal;font-variant-caps:normal;font-variant-numeric:normal;font-variant-east-asian:normal;fill:#2d22de;fill-opacity:1;stroke-width:0.264583"
           x="76.880386"
           y="160.30914"
           id="text745"><tspan
             sodipodi:role="line"
             id="tspan743"
             x="76.880386"
             y="160.30914"
             style="font-style:normal;font-variant:normal;font-weight:normal;font-stretch:normal;font-size:31.75px;font-family:Arial;-inkscape-font-specification:'Arial, Normal';font-variant-ligatures:normal;font-variant-caps:normal;font-variant-numeric:normal;font-variant-east-asian:normal;fill:#2d22de;fill-opacity:1;stroke-width:0.264583">Citations</tspan></text>
      </g>
    </g>
  </g>
</svg>
